<?xml version="1.0" standalone="no"?>
<!DOCTYPE svg PUBLIC "-//W3C//DTD SVG 20010904//EN"
 "http://www.w3.org/TR/2001/REC-SVG-20010904/DTD/svg10.dtd">
<svg version="1.0" xmlns="http://www.w3.org/2000/svg"
 width="626.000000pt" height="417.000000pt" viewBox="0 0 626.000000 417.000000"
 preserveAspectRatio="xMidYMid meet">

<g transform="translate(0.000000,417.000000) scale(0.100000,-0.100000)"
fill="#000000" stroke="none">
<path d="M0 4144 c0 -27 4 -28 67 -8 10 3 7 -1 -7 -10 -14 -8 -20 -15 -14 -16
12 0 38 -50 29 -58 -3 -3 1 -12 8 -21 7 -9 19 -33 26 -55 7 -21 23 -59 34 -85
12 -25 21 -50 22 -54 0 -4 7 -12 15 -17 8 -5 10 -10 4 -10 -7 0 -14 -7 -18
-15 -5 -13 -2 -14 15 -4 11 6 23 9 25 7 2 -3 -23 -17 -55 -33 l-59 -28 -40 32
c-22 17 -43 31 -46 31 -3 0 -6 -855 -6 -1900 l0 -1900 814 0 814 0 7 69 7 69
51 20 c98 38 94 37 67 14 -14 -12 -19 -21 -12 -22 7 0 10 -4 7 -10 -3 -5 -1
-10 5 -10 6 0 15 -12 21 -27 5 -16 18 -45 27 -65 l17 -37 557 -1 556 0 6 27
c3 16 8 49 12 75 6 46 8 48 58 67 83 31 94 34 66 17 -14 -8 -20 -15 -14 -16 7
0 27 -38 45 -85 l34 -86 110 3 110 3 3 45 c3 42 1 47 -39 81 l-43 36 27 208
c17 131 31 212 39 217 7 4 39 18 71 29 31 12 57 25 57 28 0 4 -22 24 -50 44
-57 42 -57 42 -35 177 11 67 13 72 9 25 -2 -33 -7 -82 -10 -110 l-6 -50 53
-40 c66 -50 84 -61 76 -48 -4 6 16 20 43 31 38 16 56 19 73 11 20 -9 20 -9 -5
-4 -19 4 -26 1 -24 -10 1 -8 5 -18 9 -21 4 -4 7 -15 7 -23 0 -9 9 -24 20 -34
11 -9 20 -29 20 -45 0 -15 7 -37 16 -48 8 -10 13 -14 11 -9 -3 6 6 11 19 11
13 1 24 1 24 -1 0 -1 -40 -19 -89 -40 l-89 -37 -12 -101 c-7 -56 -16 -123 -20
-149 -8 -53 -7 -54 99 -136 l54 -42 677 0 677 0 -4 23 c-5 27 55 499 65 509
10 10 174 79 179 75 2 -2 -37 -21 -87 -42 -49 -21 -90 -43 -90 -49 0 -6 -14
-118 -31 -248 -26 -193 -30 -240 -19 -253 11 -13 87 -15 616 -15 l604 0 0
2085 0 2085 -2706 0 c-1488 0 -2703 -4 -2700 -8 3 -5 48 -41 100 -81 l94 -72
62 26 c34 14 64 24 66 22 2 -2 -26 -16 -62 -30 -45 -19 -70 -24 -82 -18 -9 5
-62 43 -117 85 -97 75 -101 77 -152 75 -57 -3 -60 -5 -38 -35 8 -10 15 -29 15
-41 0 -12 6 -28 14 -36 17 -16 66 -136 66 -160 0 -9 9 -26 19 -36 11 -11 23
-36 27 -55 3 -20 10 -36 15 -36 4 0 11 -21 15 -47 8 -54 18 -65 54 -57 l25 6
-25 -14 c-35 -19 -200 -88 -212 -88 -10 0 -254 182 -310 232 l-38 33 23 168
23 167 -218 0 -218 0 0 -26z m943 -461 c-7 -2 -19 -2 -25 0 -7 3 -2 5 12 5 14
0 19 -2 13 -5z m-619 -463 l-61 -29 -12 -93 c-6 -51 -14 -115 -18 -141 -3 -26
-8 -46 -10 -43 -3 3 3 68 13 145 l17 139 56 25 c31 14 61 25 66 25 6 0 -18
-13 -51 -28z m-107 -377 c-3 -10 -5 -2 -5 17 0 19 2 27 5 18 2 -10 2 -26 0
-35z m-10 -73 l-6 -49 190 -146 c159 -122 193 -143 209 -135 10 5 22 10 27 10
4 -1 -4 -8 -20 -16 -27 -15 -28 -14 -220 132 -105 81 -193 148 -194 149 -5 3
10 105 15 105 3 0 2 -22 -1 -50z m463 -310 c-8 -5 -19 -10 -25 -10 -5 0 -3 5
5 10 8 5 20 10 25 10 6 0 3 -5 -5 -10z m5140 -155 c-14 -8 -29 -14 -35 -14 -5
0 1 6 15 14 14 8 30 14 35 14 6 0 -1 -6 -15 -14z m-60 -25 c-8 -5 -19 -10 -25
-10 -5 0 -3 5 5 10 8 5 20 10 25 10 6 0 3 -5 -5 -10z m-70 -30 c-8 -5 -19 -10
-25 -10 -5 0 -3 5 5 10 8 5 20 10 25 10 6 0 3 -5 -5 -10z m-60 -25 c-14 -7
-28 -24 -31 -37 -7 -23 -7 -23 -8 3 -1 18 6 29 22 37 32 16 46 14 17 -3z m-43
-112 c-3 -10 -5 -2 -5 17 0 19 2 27 5 18 2 -10 2 -26 0 -35z m-5411 8 c-6 -9
12 -68 40 -131 21 -47 30 -69 44 -107 7 -18 18 -33 24 -33 6 0 4 -5 -4 -10 -9
-6 -11 -10 -3 -10 7 0 10 -7 7 -15 -4 -9 2 -18 16 -23 20 -8 18 -11 -28 -30
-28 -12 -55 -22 -61 -22 -6 0 -48 29 -94 65 l-84 64 8 53 c4 29 10 79 14 110
6 53 8 58 39 68 18 6 42 8 52 4 14 -4 16 -4 5 4 -11 8 -10 11 5 15 10 2 20 5
22 6 2 0 1 -3 -2 -8z m5399 -111 c-4 -39 -9 -69 -12 -67 -2 3 -1 37 3 76 3 40
9 70 11 67 3 -3 2 -37 -2 -76z m-18 -127 c-3 -10 -5 -2 -5 17 0 19 2 27 5 18
2 -10 2 -26 0 -35z m-12 -97 l-6 -74 37 -29 c20 -15 82 -64 138 -108 55 -45
129 -102 162 -128 l62 -46 87 35 c48 19 89 33 91 31 3 -2 -10 -10 -28 -17 -18
-7 -57 -24 -87 -37 -30 -13 -60 -22 -67 -19 -8 3 -103 73 -212 156 -109 82
-201 150 -204 150 -3 0 -3 -12 0 -26 3 -17 9 -23 19 -20 8 3 11 2 8 -3 -3 -5
-1 -12 5 -16 6 -4 8 -11 5 -16 -3 -5 1 -6 10 -3 9 4 15 3 14 -2 -4 -14 24 -98
34 -105 5 -3 11 -25 14 -48 4 -25 13 -45 23 -51 10 -5 20 -22 23 -37 8 -42 46
-146 56 -153 4 -3 14 -23 21 -45 7 -22 17 -46 23 -53 14 -18 19 -70 7 -77 -6
-3 -10 -12 -10 -18 0 -9 2 -9 8 0 10 16 54 21 59 7 3 -10 -202 -104 -226 -104
-6 0 -61 39 -123 86 -62 48 -143 109 -180 137 -38 28 -68 54 -68 58 0 21 60
452 63 456 11 11 200 82 207 78 10 -6 30 50 30 86 0 16 3 29 6 29 3 0 3 -33
-1 -74z m-5204 17 c13 -17 13 -17 -6 -3 -11 8 -22 16 -24 17 -2 2 0 3 6 3 6 0
17 -8 24 -17z m4549 -273 c-8 -5 -11 -10 -6 -10 5 0 3 -7 -4 -15 -10 -12 -10
-15 1 -15 11 0 11 -2 -1 -10 -13 -8 -12 -10 3 -10 10 0 20 -8 23 -17 8 -22 62
-161 74 -188 5 -11 11 -29 15 -41 3 -12 18 -27 32 -33 26 -12 27 -13 8 -24
-11 -6 -41 -21 -67 -34 l-48 -22 -92 71 c-51 39 -94 72 -94 72 -1 1 6 54 14
118 l15 118 61 24 c65 26 91 32 66 16z m1290 -40 c-8 -5 -19 -10 -25 -10 -5 0
-3 5 5 10 8 5 20 10 25 10 6 0 3 -5 -5 -10z m-2510 -160 c-8 -5 -19 -10 -25
-10 -5 0 -3 5 5 10 8 5 20 10 25 10 6 0 3 -5 -5 -10z m-70 -30 c-8 -5 -19 -10
-25 -10 -5 0 -3 5 5 10 8 5 20 10 25 10 6 0 3 -5 -5 -10z m-85 -34 c-39 -18
-51 -30 -56 -52 l-7 -29 -1 31 c-1 28 4 34 47 52 64 28 79 26 17 -2z m-68
-138 c-2 -13 -4 -5 -4 17 -1 22 1 32 4 23 2 -10 2 -28 0 -40z m-12 -103 c-4
-36 -10 -64 -12 -61 -3 2 -2 34 2 71 4 36 10 64 12 61 3 -2 2 -34 -2 -71z
m235 -315 c-8 -5 -19 -10 -25 -10 -5 0 -3 5 5 10 8 5 20 10 25 10 6 0 3 -5 -5
-10z m-23 -46 c-3 -3 -12 -4 -19 -1 -8 3 -5 6 6 6 11 1 17 -2 13 -5z m73 -108
c0 -2 -7 -6 -15 -10 -8 -3 -15 -1 -15 4 0 6 7 10 15 10 8 0 15 -2 15 -4z"/>
<path d="M5487 1725 c3 -8 9 -12 14 -9 12 7 11 11 -5 17 -10 4 -13 1 -9 -8z"/>
<path d="M5458 1713 c7 -3 16 -2 19 1 4 3 -2 6 -13 5 -11 0 -14 -3 -6 -6z"/>
<path d="M5789 1023 c-13 -17 -13 -17 6 -3 11 8 22 16 24 17 2 2 0 3 -6 3 -6
0 -17 -8 -24 -17z"/>
<path d="M4990 1180 c12 -8 12 -10 1 -10 -8 0 -12 -2 -9 -5 3 -3 13 -2 22 1
14 5 15 9 4 15 -7 5 -17 9 -23 9 -5 0 -3 -5 5 -10z"/>
</g>
</svg>
